<?xml version="1.0" standalone="no"?>
<!DOCTYPE svg PUBLIC "-//W3C//DTD SVG 20010904//EN"
 "http://www.w3.org/TR/2001/REC-SVG-20010904/DTD/svg10.dtd">
<svg version="1.0" xmlns="http://www.w3.org/2000/svg"
 width="288.000000pt" height="80.000000pt" viewBox="0 0 288.000000 80.000000"
 preserveAspectRatio="xMidYMid meet">
<metadata>
Created by potrace 1.16, written by Peter Selinger 2001-2019
</metadata>
<g transform="translate(0.000000,80.000000) scale(0.100000,-0.100000)"
fill="#000000" stroke="none">
<path d="M0 760 c0 -50 24 -55 36 -7 7 30 8 29 13 -23 6 -49 -8 -119 -17 -92
-2 6 -10 8 -18 5 -12 -4 -14 -56 -14 -324 l0 -319 1440 0 1440 0 0 400 0 400
-54 0 c-63 0 -82 -17 -93 -83 -3 -20 -11 -37 -17 -36 -34 4 -37 -4 -6 -17 33
-14 34 -14 5 -9 l-30 5 28 -15 c15 -9 27 -18 27 -20 0 -3 -14 -24 -31 -47 -16
-24 -27 -44 -22 -45 10 -4 9 -85 -1 -101 -3 -6 -14 -9 -24 -6 -12 4 -13 3 -5
-3 8 -6 14 -51 16 -134 2 -69 6 -130 10 -135 3 -5 -5 -11 -19 -12 -23 -2 -24
1 -26 66 -1 37 -1 76 0 87 1 11 3 84 4 163 1 78 5 142 9 142 4 0 9 14 11 30 4
27 2 30 -21 30 -19 0 -22 3 -13 12 7 7 12 20 12 30 0 12 7 18 21 18 13 0 18
-4 13 -12 -9 -15 -9 -16 46 44 l43 48 -101 0 c-114 0 -117 -2 -103 -93 4 -26
4 -50 -1 -53 -4 -3 -9 -17 -9 -32 -2 -24 -2 -24 -6 -4 -3 17 -11 22 -34 22
l-29 0 0 80 0 80 -747 0 c-481 -1 -752 -5 -759 -11 -7 -6 -18 -33 -25 -60 -8
-29 -18 -48 -24 -45 -7 2 -18 0 -26 -5 -11 -7 -10 -9 6 -9 17 0 17 -2 5 -10
-8 -5 -10 -10 -5 -10 6 0 3 -5 -5 -10 -11 -8 -8 -9 11 -4 41 9 44 -12 10 -58
-17 -23 -28 -44 -23 -47 6 -5 7 -31 3 -95 -1 -11 -6 -16 -14 -13 -10 4 -13 -2
-9 -19 2 -13 8 -24 13 -24 11 0 12 -47 1 -54 -5 -3 -10 -36 -11 -73 -1 -37 -5
-71 -8 -76 -3 -6 -1 -7 5 -3 7 4 13 33 13 64 l2 57 8 -70 c10 -85 8 -93 -26
-90 -43 5 -58 24 -51 65 29 169 39 274 30 331 -5 32 -8 35 -30 31 -22 -4 -24
-1 -24 36 0 22 -5 42 -12 44 -9 3 -9 6 0 12 7 4 12 2 12 -3 0 -6 6 -11 13 -11
6 0 21 -7 31 -15 17 -13 17 -17 5 -32 -13 -16 -12 -17 2 -5 9 7 19 26 21 42 4
26 1 29 -26 33 l-31 4 33 1 c18 1 32 7 32 15 0 7 21 36 46 65 l46 52 -486 0
-486 0 0 -40z m246 -2 c-9 -12 -16 -33 -16 -45 0 -19 -5 -23 -32 -23 -25 0
-29 -3 -18 -10 13 -9 13 -10 0 -10 -8 -1 0 -7 18 -15 17 -8 32 -17 32 -21 0
-4 -18 -29 -40 -55 -37 -44 -56 -79 -28 -51 20 20 23 14 20 -42 -4 -50 -6 -54
-31 -58 -28 -4 -28 -4 -19 36 5 23 7 55 3 72 -5 27 -9 30 -30 26 -23 -4 -25
-2 -25 37 0 22 -4 41 -9 41 -5 0 -9 18 -9 40 0 22 3 40 9 40 5 0 9 -18 9 -40
0 -36 3 -40 25 -40 17 0 25 -6 25 -17 0 -24 16 -4 24 30 6 24 4 27 -21 28 -27
2 -27 2 -3 6 14 3 47 28 73 55 48 50 73 60 43 16z m364 0 c-11 -18 -20 -43
-20 -55 0 -15 -5 -21 -14 -17 -8 3 -17 1 -21 -5 -3 -6 2 -11 12 -12 16 0 16
-1 -2 -9 -13 -6 -15 -9 -5 -9 8 -1 22 -5 30 -11 11 -7 6 -18 -28 -59 -42 -49
-55 -74 -28 -52 19 16 22 5 16 -54 -5 -47 -7 -50 -33 -50 -18 -1 -26 4 -23 11
3 7 8 28 11 48 8 41 -4 71 -16 40 -6 -16 -8 -14 -8 9 -1 18 3 26 10 21 8 -5 8
-1 0 14 -14 27 -15 75 0 66 6 -3 8 -15 5 -27 -3 -12 -1 -16 4 -11 5 5 11 20
13 33 2 12 9 26 16 31 9 5 -2 9 -28 12 -22 2 -43 -1 -45 -7 -2 -5 -5 -2 -5 9
-1 12 4 16 13 13 9 -4 17 1 20 11 3 10 17 18 32 19 19 1 23 -2 15 -10 -6 -6
-11 -16 -11 -21 0 -6 7 1 17 14 22 34 75 90 85 90 4 0 -1 -15 -12 -32z m704 5
c-7 -16 -14 -41 -14 -57 0 -19 -4 -27 -13 -23 -8 3 -20 1 -28 -4 -11 -7 -10
-9 6 -9 15 0 16 -3 7 -9 -10 -6 -5 -11 17 -21 l31 -12 -35 -48 c-29 -39 -32
-49 -20 -54 13 -4 14 -14 9 -43 -4 -21 -7 -43 -7 -48 0 -6 -13 -11 -29 -12
-22 0 -28 3 -24 14 20 52 17 121 -4 108 -6 -4 -10 11 -10 34 0 23 5 41 10 41
6 0 8 -12 5 -27 -4 -23 -4 -25 4 -8 5 11 10 30 10 43 1 12 7 23 14 23 6 1 -1
5 -18 9 -26 6 -27 8 -7 9 13 0 22 6 20 13 -2 6 5 21 16 33 12 12 31 34 43 49
28 34 36 33 17 -1z m357 -1 c-6 -12 -11 -34 -11 -51 0 -24 -4 -31 -20 -31 -28
0 -25 -20 3 -21 21 0 21 -1 2 -9 -16 -7 -17 -9 -3 -9 30 -2 31 -21 2 -64 -15
-22 -23 -42 -18 -44 15 -5 4 -113 -11 -113 -20 0 -26 -28 -10 -44 17 -17 20
-30 5 -21 -5 3 -10 1 -10 -4 0 -6 5 -11 11 -11 6 0 7 -5 2 -12 -10 -17 -20
-158 -10 -151 4 2 8 21 8 41 l2 37 8 -45 c15 -85 13 -90 -23 -79 -18 5 -37 9
-42 9 -12 0 0 -94 13 -98 17 -6 2 -22 -20 -22 -19 0 -27 15 -11 22 5 1 7 31 4
65 -2 35 -8 60 -13 57 -8 -5 -2 96 6 105 3 2 5 -13 5 -35 1 -89 29 42 35 161
1 17 5 48 9 70 4 22 3 51 -2 64 -8 23 4 92 22 120 8 12 2 13 -30 8 -27 -4 -34
-3 -24 3 8 5 23 10 33 10 9 0 17 6 17 13 1 16 70 110 77 104 2 -3 0 -14 -6
-25z m345 6 c-9 -12 -16 -37 -16 -54 0 -24 -5 -33 -22 -39 l-23 -7 25 -8 c18
-6 20 -8 7 -9 -10 -1 -15 -6 -12 -11 4 -6 11 -8 16 -5 5 4 9 1 9 -5 0 -6 5 -8
11 -4 9 5 1 -13 -37 -78 -7 -11 -8 -34 -5 -56 9 -52 3 -72 -22 -72 -13 0 -17
-3 -11 -8 6 -4 12 -36 13 -72 1 -36 6 -98 13 -138 6 -40 9 -75 6 -77 -3 -3
-19 0 -37 6 l-33 12 7 104 c3 58 10 114 14 126 4 12 7 70 6 129 -2 59 0 106 4
104 4 -3 7 6 7 20 0 19 -5 24 -25 25 l-26 1 26 9 c16 6 41 33 63 69 21 33 42
60 47 60 6 0 3 -10 -5 -22z m-1579 -3 c0 -8 -4 -12 -9 -9 -13 8 -9 -71 5 -85
8 -9 8 -12 0 -7 -7 3 -15 -5 -21 -21 -6 -16 -11 -21 -11 -13 -1 12 -10 15 -41
12 l-40 -4 0 41 0 41 40 0 c27 0 40 4 39 13 -3 25 2 36 19 40 9 3 17 5 18 6 0
0 1 -6 1 -14z m650 -7 c-3 -8 -6 -5 -6 6 -1 11 2 17 5 13 3 -3 4 -12 1 -19z
m1283 -4 c-6 -14 -10 -36 -10 -48 0 -16 -8 -26 -22 -31 l-23 -7 24 -7 c29 -8
35 -37 15 -68 -7 -13 -22 -35 -31 -50 -10 -15 -12 -24 -5 -20 9 6 12 -5 12
-47 0 -43 -3 -56 -15 -56 -14 0 -20 -14 -15 -35 2 -5 2 -38 1 -73 -1 -34 3
-72 9 -83 8 -15 7 -23 -5 -35 -8 -8 -15 -21 -15 -27 0 -7 7 -3 15 7 15 19 15
19 15 -2 0 -12 -6 -22 -12 -22 -9 0 -8 -3 2 -10 23 -14 7 -20 -20 -7 -23 12
-25 18 -25 77 1 82 12 237 20 270 4 14 2 36 -3 50 -9 23 -9 23 -16 -13 -11
-61 -26 -42 -26 34 0 62 2 70 18 67 12 -3 16 -12 14 -33 -5 -41 5 -28 16 23
l10 42 -30 0 c-25 0 -28 3 -19 14 7 8 21 12 31 9 11 -3 20 -1 20 4 0 15 61
103 71 103 5 0 4 -12 -1 -26z m-1589 -64 c6 0 8 4 4 9 -3 5 -1 12 5 16 6 4 10
-5 10 -20 0 -14 -4 -24 -9 -21 -4 3 -13 -5 -19 -19 -8 -17 -16 -22 -31 -18
-12 3 -21 11 -21 19 0 7 6 11 13 8 8 -3 13 4 14 18 1 13 5 39 10 58 l7 35 4
-42 c2 -24 8 -43 13 -43z m358 -15 c5 -17 -11 -55 -20 -49 -5 3 -10 20 -10 37
-2 30 -2 31 -6 5 -4 -23 -9 -28 -34 -28 -27 0 -29 2 -29 41 0 41 0 41 35 37
31 -4 35 -1 42 27 7 29 7 29 13 -15 4 -25 8 -49 9 -55z m351 46 c0 -22 4 -42
9 -45 4 -3 6 6 3 19 -2 15 0 25 7 25 6 0 11 -17 10 -42 0 -24 -3 -37 -6 -30
-4 10 -8 10 -19 1 -8 -6 -11 -16 -7 -22 3 -6 1 -7 -6 -3 -8 5 -11 31 -10 72 2
69 19 90 19 25z m346 -86 c-7 -22 -11 -25 -14 -12 -2 11 -13 17 -33 17 -27 0
-29 2 -29 40 0 36 3 40 24 40 19 0 26 -6 29 -27 3 -18 5 -10 7 22 l2 50 13
-50 c8 -36 9 -58 1 -80z m353 70 c7 -36 6 -54 -4 -68 -17 -25 -22 -6 -17 66 5
68 9 68 21 2z m-1455 -15 c-6 -6 -10 -2 -11 12 -2 16 1 18 10 9 7 -7 8 -14 1
-21z m724 -10 c-1 -22 -5 -40 -9 -40 -4 0 -7 18 -7 40 0 22 5 40 10 40 5 0 8
-18 6 -40z m-1048 -74 c0 -3 -4 -8 -10 -11 -5 -3 -10 -1 -10 4 0 6 5 11 10 11
6 0 10 -2 10 -4z m-353 -68 c-3 -7 -5 -2 -5 12 0 14 2 19 5 13 2 -7 2 -19 0
-25z m370 0 c-3 -8 -6 -5 -6 6 -1 11 2 17 5 13 3 -3 4 -12 1 -19z m720 -25
c-3 -10 -5 -2 -5 17 0 19 2 27 5 18 2 -10 2 -26 0 -35z m1420 15 c-3 -7 -5 -2
-5 12 0 14 2 19 5 13 2 -7 2 -19 0 -25z m-2331 -63 c-1 -47 2 -85 6 -85 4 0 5
-7 2 -15 -5 -12 -10 -13 -20 -4 -11 9 -14 8 -14 -4 0 -8 6 -17 13 -20 9 -3 9
-9 1 -23 -6 -11 -15 -19 -20 -19 -13 0 -17 65 -6 89 6 12 13 46 16 78 5 50 14
88 20 88 2 0 2 -38 2 -85z m1271 63 c-3 -8 -6 -5 -6 6 -1 11 2 17 5 13 3 -3 4
-12 1 -19z m-1387 -8 c0 -5 -5 -10 -11 -10 -5 0 -7 5 -4 10 3 6 8 10 11 10 2
0 4 -4 4 -10z m842 -87 c3 -51 1 -90 -4 -87 -4 3 -5 11 -1 17 4 7 0 7 -10 -1
-29 -24 -43 -8 -17 18 15 15 19 25 12 28 -7 2 -12 13 -12 23 0 11 4 18 8 15 5
-3 6 8 4 24 -4 28 4 67 12 59 3 -2 6 -45 8 -96z m367 8 c-1 -26 2 -57 5 -69 6
-18 3 -22 -15 -22 -22 0 -22 0 -4 -14 19 -14 19 -14 0 -36 -18 -20 -20 -20
-26 -3 -4 10 -5 32 -2 48 2 17 7 59 9 95 3 36 8 72 11 80 9 25 23 -25 22 -79z
m-904 69 c-3 -5 3 -10 13 -10 18 0 19 -3 9 -25 -16 -34 -37 -32 -37 3 0 16 3
32 7 35 10 10 15 8 8 -3z m181 -57 c-4 -38 -8 -73 -8 -80 -1 -7 -5 -10 -10 -7
-12 7 -10 -10 2 -22 6 -6 8 -18 5 -27 -8 -20 -35 -30 -36 -14 -1 7 -3 23 -4
37 -2 14 4 37 11 52 8 15 14 50 14 78 0 40 3 50 16 50 15 0 16 -9 10 -67z m61
45 c-3 -8 -6 -5 -6 6 -1 11 2 17 5 13 3 -3 4 -12 1 -19z m1028 -66 c1 -38 5
-75 9 -83 4 -8 1 -6 -7 4 -11 13 -16 15 -20 5 -2 -7 2 -20 10 -29 12 -14 12
-19 -3 -34 -15 -14 -18 -15 -25 -2 -12 20 -5 90 9 95 7 2 9 10 4 20 -7 14 -7
44 -3 107 1 5 6 4 13 -3 6 -6 12 -42 13 -80z m341 10 c-2 -28 0 -53 4 -54 4
-2 11 -13 14 -25 7 -21 4 -23 -24 -23 -28 0 -31 3 -24 22 3 12 6 52 6 89 0 57
2 66 13 55 9 -8 12 -32 11 -64z m357 31 c9 -33 10 -50 3 -55 -6 -4 -14 -4 -17
0 -10 10 -16 102 -7 102 4 0 13 -21 21 -47z m374 -26 c5 -34 13 -70 18 -79 6
-14 2 -18 -16 -19 -13 0 -18 -3 -11 -6 17 -7 15 -38 -3 -53 -18 -15 -18 -14
-19 126 -1 116 15 132 31 31z m-2690 28 c-15 -32 -37 -32 -37 0 0 20 5 25 24
25 22 0 23 -2 13 -25z m2523 4 c0 -6 -4 -7 -10 -4 -5 3 -10 -3 -10 -14 0 -12
-7 -21 -15 -21 -22 0 -20 48 3 53 20 4 32 -1 32 -14z m-1790 -3 c0 -7 -7 -19
-16 -27 -13 -10 -17 -10 -25 2 -15 25 -10 39 16 39 15 0 25 -6 25 -14z m351
-28 c-3 -24 -6 -35 -9 -25 -2 9 -8 17 -13 17 -5 0 -9 11 -9 25 0 17 5 25 18
25 15 0 17 -7 13 -42z m365 26 c-3 -9 -6 -20 -6 -25 0 -5 -7 -9 -15 -9 -9 0
-15 9 -15 25 0 19 5 25 21 25 15 0 19 -4 15 -16z m354 5 c0 -17 -20 -49 -30
-49 -11 0 -14 43 -3 53 10 11 33 8 33 -4z m350 2 c0 -21 -13 -41 -26 -41 -8 0
-14 10 -14 25 0 18 5 25 20 25 11 0 20 -4 20 -9z m-1474 -28 c10 -40 15 -47
26 -32 8 11 9 11 5 -1 -2 -8 -18 -16 -35 -18 -31 -3 -32 -2 -32 37 0 48 26 58
36 14z m-689 -35 c-3 -8 -6 -5 -6 6 -1 11 2 17 5 13 3 -3 4 -12 1 -19z m370 0
c-3 -8 -6 -5 -6 6 -1 11 2 17 5 13 3 -3 4 -12 1 -19z m1080 -10 c-3 -8 -6 -5
-6 6 -1 11 2 17 5 13 3 -3 4 -12 1 -19z m-1357 3 c0 -5 -6 -12 -12 -14 -8 -4
-7 -6 4 -6 11 -1 16 -10 16 -35 0 -19 3 -39 6 -45 4 -5 1 -13 -5 -17 -7 -4 -9
-3 -6 2 3 6 2 16 -4 24 -7 12 -9 10 -9 -8 0 -12 7 -25 15 -28 11 -5 15 -22 15
-68 0 -61 0 -62 -29 -64 -24 -2 -29 2 -34 26 -6 31 7 197 18 225 7 18 25 24
25 8z m370 0 c0 -5 -6 -12 -12 -14 -9 -4 -7 -6 3 -6 14 -1 15 -13 12 -89 -4
-72 -2 -92 11 -105 17 -16 22 -67 7 -67 -5 0 -14 6 -20 14 -7 8 -20 12 -31 9
-14 -4 -19 1 -22 24 -3 32 16 199 27 226 7 18 25 24 25 8z m730 -80 c0 -27 -3
-32 -10 -21 -7 10 -9 -5 -9 -50 1 -36 3 -57 6 -47 9 35 21 16 20 -33 0 -46 -2
-50 -21 -44 -12 3 -30 8 -41 11 -11 3 -23 11 -27 17 -11 16 -10 48 2 41 6 -3
10 -3 11 2 1 16 27 168 32 188 3 11 6 22 6 25 4 20 31 -60 31 -89z m-1193 47
c-3 -8 -6 -5 -6 6 -1 11 2 17 5 13 3 -3 4 -12 1 -19z m370 0 c-3 -8 -6 -5 -6
6 -1 11 2 17 5 13 3 -3 4 -12 1 -19z m360 0 c-3 -8 -6 -5 -6 6 -1 11 2 17 5
13 3 -3 4 -12 1 -19z m360 0 c-3 -8 -6 -5 -6 6 -1 11 2 17 5 13 3 -3 4 -12 1
-19z m1258 -16 c2 -12 0 -22 -6 -22 -5 0 -9 6 -10 13 0 10 -2 10 -6 0 -9 -23
-32 -15 -25 10 11 43 38 43 47 -1z m162 16 c-3 -8 -6 -5 -6 6 -1 11 2 17 5 13
3 -3 4 -12 1 -19z m-710 -10 c-3 -8 -6 -5 -6 6 -1 11 2 17 5 13 3 -3 4 -12 1
-19z m-1417 -57 c0 -32 -6 -24 -14 19 -4 25 -3 31 4 20 5 -8 10 -26 10 -39z
m347 27 c-3 -8 -6 -5 -6 6 -1 11 2 17 5 13 3 -3 4 -12 1 -19z m372 -15 c-1
-33 -2 -35 -8 -13 -4 14 -6 31 -3 38 8 22 12 13 11 -25z m358 -15 c-2 -13 -4
-5 -4 17 -1 22 1 32 4 23 2 -10 2 -28 0 -40z m1060 30 c-3 -8 -6 -5 -6 6 -1
11 2 17 5 13 3 -3 4 -12 1 -19z m-708 -38 l-1 -25 -8 25 c-4 14 -8 32 -9 40
-1 13 0 13 9 0 5 -8 9 -26 9 -40z m-922 24 c2 -7 -4 -19 -13 -29 -17 -16 -18
-16 -26 5 -4 12 -5 26 -2 31 8 13 36 7 41 -7z m-880 -26 c-3 -7 -5 -2 -5 12 0
14 2 19 5 13 2 -7 2 -19 0 -25z m1973 18 c0 -7 -7 -19 -16 -27 -13 -10 -17
-10 -25 2 -15 25 -10 39 16 39 15 0 25 -6 25 -14z m360 -2 c0 -8 -7 -22 -15
-30 -8 -9 -15 -12 -15 -7 0 4 -3 18 -6 31 -5 18 -2 22 15 22 12 0 21 -6 21
-16z m-183 -26 c-3 -7 -5 -2 -5 12 0 14 2 19 5 13 2 -7 2 -19 0 -25z m360 10
c-3 -8 -6 -5 -6 6 -1 11 2 17 5 13 3 -3 4 -12 1 -19z m-1777 -60 c0 -34 -2
-59 -5 -56 -9 8 -12 127 -3 122 4 -3 8 -33 8 -66z m-352 -108 l-1 -55 -7 60
c-4 33 -8 80 -8 105 l1 45 7 -50 c5 -27 8 -75 8 -105z m-369 -14 c1 -104 -6
-76 -12 49 -4 75 -3 96 3 65 5 -25 9 -76 9 -114z m1793 129 c3 -14 1 -25 -3
-25 -5 0 -9 11 -9 25 0 14 2 25 4 25 2 0 6 -11 8 -25z m345 -12 c-3 -10 -5 -4
-5 12 0 17 2 24 5 18 2 -7 2 -21 0 -30z m-1051 -10 c-11 -11 -17 4 -9 23 7 18
8 18 11 1 2 -10 1 -21 -2 -24z m711 -65 c-2 -13 -4 -5 -4 17 -1 22 1 32 4 23
2 -10 2 -28 0 -40z m350 0 c-2 -13 -4 -5 -4 17 -1 22 1 32 4 23 2 -10 2 -28 0
-40z m360 -26 c-2 -15 -4 -2 -4 28 0 30 2 43 4 28 2 -16 2 -40 0 -56z m-1760
-85 c11 4 14 2 9 -5 -4 -7 -15 -12 -24 -12 -15 0 -16 8 -12 57 l5 58 3 -52 c2
-43 6 -51 19 -46z m350 41 c-2 -13 -4 -5 -4 17 -1 22 1 32 4 23 2 -10 2 -28 0
-40z m710 -5 c-3 -10 -5 -4 -5 12 0 17 2 24 5 18 2 -7 2 -21 0 -30z m350 0
c-3 -10 -5 -4 -5 12 0 17 2 24 5 18 2 -7 2 -21 0 -30z m-1032 7 c3 -5 1 -10
-4 -10 -6 0 -11 5 -11 10 0 6 2 10 4 10 3 0 8 -4 11 -10z m-345 -10 c0 -5 -2
-10 -4 -10 -3 0 -8 5 -11 10 -3 6 -1 10 4 10 6 0 11 -4 11 -10z m1527 -35 c-4
-8 -11 -15 -17 -15 -7 0 -7 6 0 21 13 23 26 19 17 -6z m210 3 c-3 -8 -6 -5 -6
6 -1 11 2 17 5 13 3 -3 4 -12 1 -19z m-1417 2 c0 -5 -6 -10 -14 -10 -8 0 -18
5 -21 10 -3 6 3 10 14 10 12 0 21 -4 21 -10z m840 -15 c-7 -8 -17 -15 -23 -15
-5 0 -2 9 8 20 21 23 35 19 15 -5z m715 6 c-3 -6 -11 -11 -17 -11 -6 0 -6 6 2
15 14 17 26 13 15 -4z m-2571 -15 c-6 -15 -34 -23 -34 -10 0 8 34 34 38 30 1
-2 0 -11 -4 -20z m334 8 c-9 -10 -21 -13 -29 -8 -9 5 -8 9 7 15 31 12 39 10
22 -7z m1172 1 c-14 -17 -30 -20 -30 -6 0 5 8 12 18 14 9 3 19 5 21 6 2 0 -2
-6 -9 -14z m-745 -14 c-8 -13 -35 -15 -35 -2 0 5 8 11 18 13 21 5 26 2 17 -11z
m380 9 c-8 -13 -35 -13 -35 0 0 6 9 10 21 10 11 0 17 -4 14 -10z m608 -11 c-6
-6 -19 -9 -29 -6 -17 3 -16 5 6 14 28 12 39 8 23 -8z m377 12 c0 -9 -24 -21
-41 -21 -16 0 -10 18 9 23 28 8 32 7 32 -2z m380 -6 c-14 -17 -40 -20 -40 -6
0 8 18 16 44 20 5 0 3 -6 -4 -14z m-2123 -1 c-3 -3 -12 -4 -19 -1 -8 3 -5 6 6
6 11 1 17 -2 13 -5z"/>
<path d="M2338 643 c7 -3 16 -2 19 1 4 3 -2 6 -13 5 -11 0 -14 -3 -6 -6z"/>
<path d="M2531 694 c0 -11 3 -14 6 -6 3 7 2 16 -1 19 -3 4 -6 -2 -5 -13z"/>
</g>
</svg>
